HIERARCHY
ROOT Hips
{
	OFFSET -0.001795 -0.223333 0.028219
	CHANNELS 6 Xposition Yposition Zposition Zrotation Yrotation Xrotation 
	JOINT LeftUpLeg
	{
		OFFSET 0.069520 -0.091406 -0.006815
		CHANNELS 3 Zrotation Yrotation Xrotation
		JOINT LeftLeg
		{
			OFFSET 0.034277 -0.375199 -0.004496
			CHANNELS 3 Zrotation Yrotation Xrotation
			JOINT LeftFoot
			{
				OFFSET -0.013596 -0.397961 -0.043693
				CHANNELS 3 Zrotation Yrotation Xrotation
				JOINT LeftToe
				{
					OFFSET 0.026358 -0.055791 0.119288
					CHANNELS 3 Zrotation Yrotation Xrotation
					End Site
					{
						OFFSET 0.000000 0.000000 0.000000
					}
				}
			}
		}
	}
	JOINT RightUpLeg
	{
		OFFSET -0.067670 -0.090522 -0.004320
		CHANNELS 3 Zrotation Yrotation Xrotation
		JOINT RightLeg
		{
			OFFSET -0.038290 -0.382569 -0.008850
			CHANNELS 3 Zrotation Yrotation Xrotation
			JOINT RightFoot
			{
				OFFSET 0.015774 -0.398415 -0.042312
				CHANNELS 3 Zrotation Yrotation Xrotation
				JOINT RightToe
				{
					OFFSET -0.025372 -0.048144 0.123348
					CHANNELS 3 Zrotation Yrotation Xrotation
					End Site
					{
						OFFSET 0.000000 0.000000 0.000000
					}
				}
			}
		}
	}
	JOINT Spine
	{
		OFFSET -0.002533 0.108963 -0.026696
		CHANNELS 3 Zrotation Yrotation Xrotation
		JOINT Spine1
		{
			OFFSET 0.005487 0.135180 0.001092
			CHANNELS 3 Zrotation Yrotation Xrotation
			JOINT Spine2
			{
				OFFSET 0.001457 0.052922 0.025425
				CHANNELS 3 Zrotation Yrotation Xrotation
				JOINT Neck
				{
					OFFSET -0.002778 0.213870 -0.042857
					CHANNELS 3 Zrotation Yrotation Xrotation
					JOINT Head
					{
						OFFSET 0.005152 0.064970 0.051349
						CHANNELS 3 Zrotation Yrotation Xrotation
						End Site
						{
							OFFSET 0.000000 0.000000 0.000000
						}
					}
				}
				JOINT LeftShoulder
				{
					OFFSET 0.078845 0.121749 -0.034090
					CHANNELS 3 Zrotation Yrotation Xrotation
					JOINT LeftArm
					{
						OFFSET 0.090977 0.030469 -0.008868
						CHANNELS 3 Zrotation Yrotation Xrotation
						JOINT LeftForeArm
						{
							OFFSET 0.259612 -0.012772 -0.027456
							CHANNELS 3 Zrotation Yrotation Xrotation
							JOINT LeftHand
							{
								OFFSET 0.249234 0.008986 -0.001171
								CHANNELS 3 Zrotation Yrotation Xrotation
								End Site
								{
									OFFSET 0.000000 0.000000 0.000000
								}
							}
						}
					}
				}
				JOINT RightShoulder
				{
					OFFSET -0.081759 0.118833 -0.038615
					CHANNELS 3 Zrotation Yrotation Xrotation
					JOINT RightArm
					{
						OFFSET -0.096012 0.032551 -0.009143
						CHANNELS 3 Zrotation Yrotation Xrotation
						JOINT RightForeArm
						{
							OFFSET -0.253742 -0.013329 -0.021401
							CHANNELS 3 Zrotation Yrotation Xrotation
							JOINT RightHand
							{
								OFFSET -0.255298 0.007772 -0.005559
								CHANNELS 3 Zrotation Yrotation Xrotation
								End Site
								{
									OFFSET 0.000000 0.000000 0.000000
								}
							}
						}
					}
				}
			}
		}
	}
}
MOTION
Frames: 8
Frame Time: 0.050000
0.293783 0.952362 1.671715 0.162657 10.786375 13.435558 3.334140 -1.631949 -19.254386 0.000379 -0.168116 3.991975 3.124701 10.518193 10.437447 0.000000 0.000000 0.000000 -0.407528 1.659509 -20.338340 -1.980235 0.507482 6.044526 -3.767600 -10.465229 9.061544 0.000000 0.000000 0.000000 4.494168 -2.041715 17.523517 -1.271436 0.722691 -4.708437 -3.979009 8.589158 9.684883 15.975963 -3.706003 -29.863827 0.000000 0.000000 0.000000 -16.921195 -20.184182 5.239567 -25.248294 -25.619957 1.973349 91.237447 -61.596531 -63.038721 0.000000 0.000000 0.000000 15.510668 16.278287 10.962843 17.818567 41.839948 2.116883 -61.535276 40.799663 -18.236936 0.000000 0.000000 0.000000 
0.292022 0.952431 1.670997 0.087151 9.841463 13.032258 3.601158 -1.509709 -18.490039 -0.129016 -0.144629 3.875251 3.365365 10.712184 10.127488 0.000000 0.000000 0.000000 -0.214886 1.688687 -19.898313 -1.964070 0.500251 5.825560 -3.463403 -9.927348 8.868114 0.000000 0.000000 0.000000 4.276751 -1.819289 16.347859 -1.245642 0.723633 -5.114688 -4.146662 7.706699 9.717685 15.389187 -3.582204 -29.843513 0.000000 0.000000 0.000000 -16.884509 -20.479990 5.756257 -25.655433 -26.950868 2.183068 87.914527 -60.916150 -59.046970 0.000000 0.000000 0.000000 16.746937 16.119434 10.859715 21.507153 41.792824 3.135970 -63.931068 46.547424 -22.816864 0.000000 0.000000 0.000000 
0.290892 0.952092 1.670312 -0.095923 8.988809 12.585304 4.009502 -1.382908 -17.727375 -0.625179 -0.081632 3.876132 3.676421 11.046838 9.850176 0.000000 0.000000 0.000000 0.047437 1.730445 -19.599308 -1.942783 0.495795 5.712027 -3.374595 -9.864499 9.057439 0.000000 0.000000 0.000000 4.048951 -1.625515 15.264127 -1.371858 0.769804 -5.095566 -4.013884 6.930075 9.235112 14.612689 -3.383438 -29.584213 0.000000 0.000000 0.000000 -17.346891 -20.452784 6.033431 -25.999772 -28.623982 2.522277 82.988702 -60.431319 -54.046000 0.000000 0.000000 0.000000 17.436876 15.687727 10.449751 26.036287 41.637817 4.482159 -65.662595 52.614481 -27.652634 0.000000 0.000000 0.000000 
0.289971 0.951719 1.669418 -0.269034 8.382547 12.331112 4.322513 -1.306453 -17.321384 -0.867736 -0.055008 4.033191 3.832110 11.191547 9.672345 0.000000 0.000000 0.000000 0.386259 1.781682 -19.450904 -2.010545 0.504044 5.591747 -3.227216 -9.618026 8.950711 0.000000 0.000000 0.000000 3.863414 -1.449205 14.070937 -1.374128 0.761448 -4.871529 -4.013869 5.916133 8.700607 13.616944 -3.035819 -29.594595 0.000000 0.000000 0.000000 -17.727449 -20.224575 6.253793 -27.004459 -30.133661 2.951832 78.334608 -60.825891 -50.231492 0.000000 0.000000 0.000000 18.154736 15.450559 10.098807 29.926726 41.090186 5.568505 -65.237000 58.896848 -31.851958 0.000000 0.000000 0.000000 
0.288935 0.950990 1.668456 -0.546659 7.699643 11.836403 4.716377 -1.206530 -16.699015 -1.011396 -0.042136 4.288750 4.071436 11.358946 9.075690 0.000000 0.000000 0.000000 0.709367 1.813556 -19.077224 -1.925048 0.485872 5.435549 -3.015369 -9.254072 8.897664 0.000000 0.000000 0.000000 3.824993 -1.345453 13.297053 -1.375320 0.761024 -4.920699 -4.047703 5.583637 8.353061 13.277721 -2.967693 -29.476166 0.000000 0.000000 0.000000 -18.318188 -20.405403 6.520065 -27.819258 -30.915169 3.272471 73.502682 -61.329709 -46.683030 0.000000 0.000000 0.000000 18.846642 15.231241 9.908349 32.929278 40.022384 6.188378 -62.719595 64.123966 -33.894720 0.000000 0.000000 0.000000 
0.287809 0.950602 1.667694 -0.803705 7.020216 11.338177 5.036489 -1.116576 -16.062037 -0.967814 -0.045004 4.324627 4.212415 11.377815 8.480996 0.000000 0.000000 0.000000 0.944094 1.842681 -18.850664 -1.995020 0.496296 5.368769 -2.641516 -8.520811 8.660375 0.000000 0.000000 0.000000 3.580749 -1.248146 12.899614 -1.365996 0.758032 -5.071099 -4.002700 5.327058 8.095119 12.802052 -2.944044 -28.764162 0.000000 0.000000 0.000000 -18.668101 -20.232477 6.582700 -28.828756 -31.612323 3.610158 68.748316 -61.798286 -43.302751 0.000000 0.000000 0.000000 19.398275 14.816014 9.587544 35.444771 39.080172 6.656316 -56.776834 68.981178 -32.980487 0.000000 0.000000 0.000000 
0.286651 0.950289 1.667407 -1.174881 6.649806 10.933913 5.346610 -1.038635 -15.404972 -0.830614 -0.048128 3.956557 4.153968 11.170929 8.210346 0.000000 0.000000 0.000000 1.488921 1.889542 -18.508893 -2.236675 0.527931 5.204348 -2.368749 -7.999455 8.660720 0.000000 0.000000 0.000000 3.740506 -1.193291 12.138976 -1.567684 0.836723 -5.013950 -3.902249 4.814148 7.811031 12.329819 -2.915562 -28.133435 0.000000 0.000000 0.000000 -19.530899 -20.115110 6.725677 -29.092615 -31.870637 3.735863 63.331891 -62.165207 -39.358372 0.000000 0.000000 0.000000 19.687603 14.436910 9.178293 37.549308 37.929969 6.930704 -47.048288 72.599168 -28.040324 0.000000 0.000000 0.000000 
0.285635 0.949787 1.667454 -1.352359 6.325473 10.578553 5.539020 -0.967033 -14.593278 -0.675894 -0.040664 3.207356 4.024509 11.002788 8.554600 0.000000 0.000000 0.000000 1.925228 1.891040 -17.897312 -2.463939 0.540573 4.750019 -2.076827 -7.430606 8.660261 0.000000 0.000000 0.000000 3.716802 -1.100859 11.267607 -1.632674 0.849027 -4.473339 -4.067349 4.623260 7.124386 11.891651 -2.967277 -26.816457 0.000000 0.000000 0.000000 -20.278006 -20.134496 6.805738 -29.472848 -31.926798 3.892784 57.357539 -62.446393 -35.217396 0.000000 0.000000 0.000000 20.482463 14.058439 8.978121 38.428289 36.881366 6.836670 -35.533301 74.403748 -20.263570 0.000000 0.000000 0.000000 
